# xmcd
# Copyright (C) 1995-1998 Ti Kan
#
# Track frame offsets:
#       150
#       26275
#       45519
#       55065
#       83573
#       110544
#       149014
#       171048
#       191835
#       207486
#       220996
#
# Disc length: 3330 seconds
#
# Revision: 0
# Processed by: cddbd v1.5.2PL0 Copyright (c) Steve Scherf et al.
# Submitted via: CD-Import v1.0
#
DISCID=9b0d000b
DTITLE=Jürg Wickihalder Orchestra - Narziss und Echo
DYEAR=11
DGENRE=
TTITLE0=die sage von narziss
TTITLE1=ouvertüre
TTITLE2=saturnia, ach, bist du süss
TTITLE3=ach, saturnia, jetzt wird^s mir doch zu süss
TTITLE4=ich macht' noch in die windeln
TTITLE5=schwere nacht, starre nacht
TTITLE6=ist da jemand
TTITLE7=wie krank sind doch die menschen
TTITLE8=nein doch, was ist dies licht
TTITLE9=doch warum kann ich nicht
TTITLE10=da liegt narziss
EXTD=
EXTT0=
EXTT1=
EXTT2=
EXTT3=
EXTT4=
EXTT5=
EXTT6=
EXTT7=
EXTT8=
EXTT9=
EXTT10=
PLAYORDER=
